# xmcd
#
# Track frame offsets: 
#        150
#        12550
#        26000
#        39302
#        53223
#        65853
#        81127
#        93307
#        106917
#        120419
#        134266
#        147794
#        162461
#        174836
#        188913
#        206104
#        220289
#        235236
#        244625
#        261581
#        274808
#        287204
#        298666
#
# Disc length: 4298 seconds
#
# Revision: 0
# Processed by: cddbd v1.5.2PL0 Copyright (c) Steve Scherf et al.
# Submitted via: ExactAudioCopy v1.0b4
#
DISCID=5f10c817
DTITLE=John Lee Hooker - Mad Man Blues (DLP)
DYEAR=1981
DGENRE=Blues
TTITLE0=Mad Man Blues
TTITLE1=Ground Hog Blues
TTITLE2=Down At The Landing
TTITLE3=Louise
TTITLE4=Leave My Wife Alone
TTITLE5=Just Me And My Telephone
TTITLE6=In The Mood
TTITLE7=Love Blues
TTITLE8=It' s My Own Fault
TTITLE9=I Don' t Want Your Money
TTITLE10=Stella Mae
TTITLE11=Sugar Mama
TTITLE12=Walkin' The Boogie
TTITLE13=Worried Life Blues
TTITLE14=Peace Lovin' Man
TTITLE15=Dreamin' Blues
TTITLE16=I' ll Never Trust Your Love Again
TTITLE17=Hey Boogie
TTITLE18=You Know, I Know
TTITLE19=Union Station Blues
TTITLE20=High Priced Woman
TTITLE21=Please Don' t Go
TTITLE22=I Put My Trust In You
EXTD=
EXTT0=
EXTT1=
EXTT2=
EXTT3=
EXTT4=
EXTT5=
EXTT6=
EXTT7=
EXTT8=
EXTT9=
EXTT10=
EXTT11=
EXTT12=
EXTT13=
EXTT14=
EXTT15=
EXTT16=
EXTT17=
EXTT18=
EXTT19=
EXTT20=
EXTT21=
EXTT22=
PLAYORDER=
